<mxfile host="www.draw.io" modified="2019-11-17T06:06:50.544Z" agent="Mozilla/5.0 (Windows NT 10.0; Win64; x64) AppleWebKit/537.36 (KHTML, like Gecko) Chrome/78.0.3904.97 Safari/537.36" etag="CJJVxe5vbRzls6ML99P8" version="12.2.6" type="github" pages="1">
  <diagram id="U7JS1V6rSenNpCV7LFmY" name="Page-1">
    <mxGraphModel dx="1024" dy="534" grid="1" gridSize="10" guides="1" tooltips="1" connect="1" arrows="1" fold="1" page="1" pageScale="1" pageWidth="827" pageHeight="1169" math="0" shadow="0">
      <root>
        <mxCell id="0"/>
        <mxCell id="1" parent="0"/>
        <mxCell id="wvIx813yQVrWYmDs5u9P-14" style="edgeStyle=orthogonalEdgeStyle;rounded=0;orthogonalLoop=1;jettySize=auto;html=1;endArrow=block;endFill=1;" edge="1" parent="1" source="wvIx813yQVrWYmDs5u9P-1">
          <mxGeometry relative="1" as="geometry">
            <mxPoint x="410" y="210" as="targetPoint"/>
          </mxGeometry>
        </mxCell>
        <mxCell id="wvIx813yQVrWYmDs5u9P-1" value="select candidate" style="ellipse;whiteSpace=wrap;html=1;aspect=fixed;fontSize=13;fontStyle=1" vertex="1" parent="1">
          <mxGeometry x="200" y="160" width="100" height="100" as="geometry"/>
        </mxCell>
        <mxCell id="wvIx813yQVrWYmDs5u9P-3" value="" style="endArrow=block;html=1;entryX=0;entryY=0.5;entryDx=0;entryDy=0;endFill=1;exitX=0.01;exitY=1.05;exitDx=0;exitDy=0;exitPerimeter=0;" edge="1" parent="1" source="wvIx813yQVrWYmDs5u9P-4" target="wvIx813yQVrWYmDs5u9P-1">
          <mxGeometry width="50" height="50" relative="1" as="geometry">
            <mxPoint x="50" y="210" as="sourcePoint"/>
            <mxPoint x="110" y="190" as="targetPoint"/>
          </mxGeometry>
        </mxCell>
        <mxCell id="wvIx813yQVrWYmDs5u9P-4" value="verified user" style="text;html=1;resizable=0;points=[];autosize=1;align=left;verticalAlign=top;spacingTop=-4;" vertex="1" parent="1">
          <mxGeometry x="110" y="190" width="80" height="20" as="geometry"/>
        </mxCell>
        <mxCell id="wvIx813yQVrWYmDs5u9P-6" value="" style="shape=link;html=1;endArrow=block;endFill=1;width=30;" edge="1" parent="1">
          <mxGeometry width="50" height="50" relative="1" as="geometry">
            <mxPoint x="200" y="339.5" as="sourcePoint"/>
            <mxPoint x="340" y="340" as="targetPoint"/>
          </mxGeometry>
        </mxCell>
        <mxCell id="wvIx813yQVrWYmDs5u9P-7" value="Candidate Information" style="text;html=1;resizable=0;points=[];autosize=1;align=left;verticalAlign=top;spacingTop=-4;fontSize=13;fontStyle=1" vertex="1" parent="1">
          <mxGeometry x="200" y="330" width="130" height="20" as="geometry"/>
        </mxCell>
        <mxCell id="wvIx813yQVrWYmDs5u9P-12" value="" style="endArrow=block;html=1;entryX=0.5;entryY=1;entryDx=0;entryDy=0;endFill=1;" edge="1" parent="1" target="wvIx813yQVrWYmDs5u9P-1">
          <mxGeometry width="50" height="50" relative="1" as="geometry">
            <mxPoint x="250" y="320" as="sourcePoint"/>
            <mxPoint x="280" y="280" as="targetPoint"/>
          </mxGeometry>
        </mxCell>
        <mxCell id="wvIx813yQVrWYmDs5u9P-13" value="candidate list" style="text;html=1;resizable=0;points=[];autosize=1;align=left;verticalAlign=top;spacingTop=-4;" vertex="1" parent="1">
          <mxGeometry x="265" y="285" width="90" height="20" as="geometry"/>
        </mxCell>
        <mxCell id="wvIx813yQVrWYmDs5u9P-15" value="vote" style="text;html=1;resizable=0;points=[];autosize=1;align=left;verticalAlign=top;spacingTop=-4;" vertex="1" parent="1">
          <mxGeometry x="330" y="190" width="40" height="20" as="geometry"/>
        </mxCell>
        <mxCell id="wvIx813yQVrWYmDs5u9P-19" style="edgeStyle=orthogonalEdgeStyle;rounded=0;orthogonalLoop=1;jettySize=auto;html=1;exitX=1;exitY=0.5;exitDx=0;exitDy=0;entryX=0;entryY=0.5;entryDx=0;entryDy=0;endArrow=block;endFill=1;" edge="1" parent="1" source="wvIx813yQVrWYmDs5u9P-16" target="wvIx813yQVrWYmDs5u9P-17">
          <mxGeometry relative="1" as="geometry"/>
        </mxCell>
        <mxCell id="wvIx813yQVrWYmDs5u9P-16" value="make vote transaction" style="ellipse;whiteSpace=wrap;html=1;aspect=fixed;fontSize=13;fontStyle=1" vertex="1" parent="1">
          <mxGeometry x="413" y="160" width="100" height="100" as="geometry"/>
        </mxCell>
        <mxCell id="wvIx813yQVrWYmDs5u9P-21" style="edgeStyle=orthogonalEdgeStyle;rounded=0;orthogonalLoop=1;jettySize=auto;html=1;endArrow=block;endFill=1;" edge="1" parent="1" source="wvIx813yQVrWYmDs5u9P-17">
          <mxGeometry relative="1" as="geometry">
            <mxPoint x="710" y="340" as="targetPoint"/>
          </mxGeometry>
        </mxCell>
        <mxCell id="wvIx813yQVrWYmDs5u9P-17" value="update user vote status" style="ellipse;whiteSpace=wrap;html=1;aspect=fixed;fontSize=13;fontStyle=1" vertex="1" parent="1">
          <mxGeometry x="660" y="160" width="100" height="100" as="geometry"/>
        </mxCell>
        <mxCell id="wvIx813yQVrWYmDs5u9P-20" value="successful transaction" style="text;html=1;resizable=0;points=[];autosize=1;align=left;verticalAlign=top;spacingTop=-4;" vertex="1" parent="1">
          <mxGeometry x="521.5" y="190" width="130" height="20" as="geometry"/>
        </mxCell>
        <mxCell id="wvIx813yQVrWYmDs5u9P-22" value="" style="shape=link;html=1;endArrow=block;endFill=1;width=25;" edge="1" parent="1">
          <mxGeometry width="50" height="50" relative="1" as="geometry">
            <mxPoint x="660" y="360" as="sourcePoint"/>
            <mxPoint x="750" y="359.5" as="targetPoint"/>
          </mxGeometry>
        </mxCell>
        <mxCell id="wvIx813yQVrWYmDs5u9P-23" value="User information" style="text;html=1;resizable=0;points=[];autosize=1;align=left;verticalAlign=top;spacingTop=-4;fontSize=13;fontStyle=1" vertex="1" parent="1">
          <mxGeometry x="660" y="350" width="100" height="20" as="geometry"/>
        </mxCell>
        <mxCell id="wvIx813yQVrWYmDs5u9P-24" value="update information" style="text;html=1;resizable=0;points=[];autosize=1;align=left;verticalAlign=top;spacingTop=-4;fontSize=13;" vertex="1" parent="1">
          <mxGeometry x="710" y="295" width="120" height="20" as="geometry"/>
        </mxCell>
        <mxCell id="wvIx813yQVrWYmDs5u9P-25" value="&lt;b&gt;0.3.1&lt;/b&gt;" style="text;html=1;resizable=0;points=[];autosize=1;align=left;verticalAlign=top;spacingTop=-4;fontSize=13;" vertex="1" parent="1">
          <mxGeometry x="230" y="240" width="40" height="20" as="geometry"/>
        </mxCell>
        <mxCell id="wvIx813yQVrWYmDs5u9P-26" value="&lt;b&gt;0.3.3&lt;/b&gt;" style="text;html=1;resizable=0;points=[];autosize=1;align=left;verticalAlign=top;spacingTop=-4;fontSize=13;" vertex="1" parent="1">
          <mxGeometry x="690" y="240" width="40" height="20" as="geometry"/>
        </mxCell>
        <mxCell id="wvIx813yQVrWYmDs5u9P-27" value="&lt;b&gt;0.3.2&lt;/b&gt;" style="text;html=1;resizable=0;points=[];autosize=1;align=left;verticalAlign=top;spacingTop=-4;fontSize=13;" vertex="1" parent="1">
          <mxGeometry x="451" y="240" width="40" height="20" as="geometry"/>
        </mxCell>
      </root>
    </mxGraphModel>
  </diagram>
</mxfile>
